<?xml version="1.0" standalone="no"?><!DOCTYPE svg PUBLIC "-//W3C//DTD SVG 1.1//EN" "http://www.w3.org/Graphics/SVG/1.1/DTD/svg11.dtd" ><svg xmlns="http://www.w3.org/2000/svg"><metadata></metadata><defs><font id="OlehLishchuk: Opinion Pro Light Italic: 2017" horiz-adv-x="995"><font-face font-family="Opinion Pro Lt" font-weight="350" font-stretch="normal" units-per-em="1000" panose-1="2 1 0 0 3 0 0 0 0 4" ascent="750" descent="-250" x-height="4" bbox="-115 -210 951 883" underline-thickness="50" underline-position="-75" unicode-range="U+0021-0451" /><missing-glyph horiz-adv-x="486" d="M58 0 l0 700 l26 0 l0 -700 l-26 0 ZM126 0 l0 700 l27 0 l0 -700 l-27 0 ZM195 0 l0 700 l27 0 l0 -700 l-27 0 ZM264 0 l0 700 l27 0 l0 -700 l-27 0 ZM333 0 l0 700 l26 0 l0 -700 l-26 0 ZM402 0 l0 700 l26 0 l0 -700 l-26 0 Z" /><glyph glyph-name="exclam" unicode="!" d="M27 0 l18 96 l68 0 l-19 -96 l-67 0 ZM75 196 l91 504 l62 0 l-107 -504 l-46 0 Z" /><glyph glyph-name="quotedbl" unicode="&quot;" d="M90 487 l42 213 l49 0 l-42 -213 l-49 0 ZM211 487 l42 213 l49 0 l-42 -213 l-49 0 Z" /><glyph glyph-name="numbersign" unicode="#" d="M381 0 l28 153 l-201 0 l-27 -153 l-49 0 l27 153 l-128 0 l7 43 l129 0 l55 308 l-127 0 l7 43 l128 0 l28 153 l49 0 l-28 -153 l201 0 l28 153 l49 0 l-28 -153 l127 0 l-7 -43 l-128 0 l-55 -308 l126 0 l-7 -43 l-127 0 l-28 -153 l-49 0 ZM271 504 l-55 -308 l201 0 l55 308 l-201 0 Z" /><glyph glyph-name="dollar" unicode="$" d="M466 502 l5 26 q11 57 -25 93 q-36 36 -104 36 q-67 0 -115.5 -33.5 q-48.5 -33.5 -59.5 -90.5 q-7 -37 7 -66.5 q14 -29.5 46 -45.5 l183 -99 q41 -22 59 -62.5 q18 -40.5 8 -89.5 q-15 -76 -79.5 -123.5 q-64.5 -47.5 -155.5 -52.5 l-18 -96 l-39 0 l18 96 q-90 5 -136.5 54.5 q-46.5 49.5 -31.5 125.5 l5 29 l59 0 l-5 -29 q-11 -59 27 -95 q38 -36 112 -36 q71 0 122 34 q51 34 63 91 q15 78 -53 112 l-182 98 q-42 23 -60.5 63 q-18.5 40 -8.5 89 q15 77 78 124 q63 47 150 52 l19 96 l39 0 l-19 -96 q84 -6 127 -55 q43 -49 29 -123 l-5 -26 l-59 0 Z" /><glyph glyph-name="percent" unicode="%" d="M410 525 q-20 -101 -66 -141.5 q-46 -40.5 -117 -40.5 q-71 0 -102 40.5 q-31 40.5 -11 141.5 q20 101 66 141.5 q46 40.5 117 40.5 q71 0 101.5 -40.5 q30.5 -40.5 11.5 -141.5 ZM313.5 411.5 q31.5 30.5 47.5 113.5 q16 83 -3 113.5 q-19 30.5 -68 30.5 q-49 0 -80 -30.5 q-31 -30.5 -46 -113.5 q-17 -83 2 -113.5 q19 -30.5 67 -30.5 q49 0 80.5 30.5 ZM120 0 l622 722 l39 -22 l-622 -722 l-39 22 ZM776 316.5 q31 -40.5 11 -141.5 q-20 -101 -66 -141.5 q-46 -40.5 -118 -40.5 q-71 0 -101.5 40.5 q-30.5 40.5 -10.5 141.5 q20 101 66 141.5 q46 40.5 116 40.5 q72 0 103 -40.5 ZM691 64 q32 30 47 111 q15 81 -4 110.5 q-19 29.5 -68 29.5 q-49 0 -79.5 -29.5 q-30.5 -29.5 -45.5 -110.5 q-16 -81 2.5 -111 q18.5 -30 66.5 -30 q49 0 81 30 Z" /><glyph glyph-name="ampersand" unicode="&amp;" d="M475 504 l5 27 q11 57 -21 92.5 q-32 35.5 -94 35.5 q-60 0 -104 -33.5 q-44 -33.5 -55 -86.5 q-2 -10 -2 -19 q0 -9 0.5 -16 q0.5 -7 4.5 -16 q4 -9 5.5 -13.5 q1.5 -4.5 8.5 -14 q7 -9.5 9.5 -12.5 q2.5 -3 11.5 -14 q9 -11 11 -14 l195 -256 q40 44 112 139 l41 -25 q-68 -93 -123 -154 l74 -96 l-49 -35 l-68 88 q-95 -88 -209 -88 q-106 0 -157 52 q-51 52 -35 132 l6 29 q18 95 153 193 q-30 38 -42 68 q-12 30 -4 72 q14 74 77.5 121 q63.5 47 149.5 47 q87 0 132.5 -49.5 q45.5 -49.5 30.5 -126.5 l-5 -27 l-59 0 ZM238 41 q87 0 170 79 l-185 242 q-109 -84 -124 -156 l-5 -29 q-12 -58 28.5 -97 q40.5 -39 115.5 -39 Z" /><glyph glyph-name="quotesingle" unicode="&#39;" d="M90 487 l42 213 l49 0 l-42 -213 l-49 0 Z" /><glyph glyph-name="parenleft" unicode="(" d="M179 -139 l-33 -18 q-3 3 -7 8.5 q-4 5.5 -16 26.5 q-12 21 -22 45 q-10 24 -19.5 64 q-9.5 40 -14 84 q-4.5 44 -1.5 104.5 q3 60.5 16 124.5 q17 88 48 168 q31 80 63 130.5 q32 50.5 61.5 88 q29.5 37.5 48.5 53.5 l19 17 l28 -18 q-6 -6 -17 -17.5 q-11 -11.5 -41 -52 q-30 -40.5 -55.5 -87.5 q-25.5 -47 -54.5 -123 q-29 -76 -45 -159 q-24 -147 -14.5 -244.5 q9.5 -97.5 33.5 -145.5 l23 -49 Z" /><glyph glyph-name="parenright" unicode=")" d="M-30 -157 l-25 18 q6 6 17 17.5 q11 11.5 41 52.5 q30 41 55.5 87.5 q25.5 46.5 54.5 123 q29 76.5 45 158.5 q16 83 17.5 158.5 q1.5 75.5 -8 124.5 q-9.5 49 -21 86 q-11.5 37 -21.5 53 l-10 17 l34 18 q3 -3 7 -8.5 q4 -5.5 16 -26.5 q12 -21 21.5 -45 q9.5 -24 19.5 -64 q10 -40 14 -84 q4 -44 1 -104.5 q-3 -60.5 -15 -124.5 q-17 -88 -48.5 -168 q-31.5 -80 -64 -130.5 q-32.5 -50.5 -62.5 -88 q-30 -37.5 -49 -53.5 l-19 -17 Z" /><glyph glyph-name="asterisk" unicode="*" d="M265 700 l46 0 l-23 -120 l121 38 l5 -43 l-120 -38 l51 -96 l-42 -27 l-52 96 l-88 -97 l-33 27 l89 97 l-107 36 l23 44 l107 -37 l23 120 Z" /><glyph glyph-name="plus" unicode="+" d="M268 542 l46 0 l0 -169 l183 0 l0 -46 l-183 0 l0 -169 l-46 0 l0 169 l-183 0 l0 46 l183 0 l0 169 Z" /><glyph glyph-name="comma" unicode="," d="M-29 -110 l74 206 l67 0 l-107 -215 l-34 9 Z" /><glyph glyph-name="hyphen" unicode="-" d="M62 294 l0 46 l190 0 l0 -46 l-190 0 Z" /><glyph glyph-name="period" unicode="." d="M27 0 l18 96 l68 0 l-19 -96 l-67 0 Z" /><glyph glyph-name="slash" unicode="/" d="M-81 -133 l557 883 l42 -17 l-557 -883 l-42 17 Z" /><glyph glyph-name="zero" unicode="0" d="M547 350 q-20 -103 -50.5 -174 q-30.5 -71 -70 -110.5 q-39.5 -39.5 -83 -56 q-43.5 -16.5 -97.5 -16.5 q-43 0 -74.5 10 q-31.5 10 -56.5 35 q-25 25 -37 65 q-12 40 -11 102 q1 62 17 145 q38 198 113.5 277.5 q75.5 79.5 186.5 79.5 q54 0 90.5 -16.5 q36.5 -16.5 62.5 -57 q26 -40.5 26.5 -109.5 q0.5 -69 -16.5 -174 ZM455 219.5 q19 55.5 34 130.5 q15 75 17 130.5 q2 55.5 -6 89 q-8 33.5 -27 54 q-19 20.5 -42 28 q-23 7.5 -56 7.5 q-41 0 -73 -12.5 q-32 -12.5 -63 -45.5 q-31 -33 -55 -95.5 q-24 -62.5 -42 -155.5 q-15 -75 -17.5 -130.5 q-2.5 -55.5 5 -89 q7.5 -33.5 26.5 -54 q19 -20.5 42 -28 q23 -7.5 56 -7.5 q33 0 59 7.5 q26 7.5 53 28 q27 20.5 48.5 54 q21.5 33.5 40.5 89 Z" /><glyph glyph-name="one" unicode="1" d="M98 608 l207 92 l42 0 l-136 -700 l-55 0 l123 642 l-166 -75 l-15 41 Z" /><glyph glyph-name="two" unicode="2" d="M0 0 l6 36 q94 91 229 220 q160 153 196.5 193 q36.5 40 43.5 74 q11 60 -24.5 98 q-35.5 38 -103.5 38 q-68 0 -118.5 -38.5 q-50.5 -38.5 -61.5 -98.5 l-5 -24 l-57 0 l4 24 q16 82 85.5 133.5 q69.5 51.5 162.5 51.5 q92 0 141.5 -52 q49.5 -52 33.5 -132 q-3 -13 -6.5 -23 q-3.5 -10 -12.5 -24.5 q-9 -14.5 -18 -26 q-9 -11.5 -30 -33.5 q-21 -22 -40.5 -41 q-19.5 -19 -57 -55.5 q-37.5 -36.5 -72.5 -70 q-35 -33.5 -94.5 -90.5 q-59.5 -57 -115.5 -111 l362 0 l-8 -48 l-439 0 Z" /><glyph glyph-name="three" unicode="3" d="M373 707 q92 0 139 -46.5 q47 -46.5 31 -130.5 q-12 -63 -53 -106 q-41 -43 -102 -60 q68 -18 99 -57 q31 -39 17 -113 q-18 -92 -92.5 -146.5 q-74.5 -54.5 -175.5 -54.5 q-99 0 -151.5 51.5 q-52.5 51.5 -36.5 132.5 l3 18 l57 0 l-3 -22 q-12 -58 26.5 -95 q38.5 -37 111.5 -37 q77 0 133.5 41.5 q56.5 41.5 70.5 114.5 q14 68 -25.5 105 q-39.5 37 -116.5 37 l-44 0 l9 48 l18 0 q77 0 131 37 q54 37 67 105 q13 63 -22 96.5 q-35 33.5 -102 33.5 q-73 0 -125 -37 q-52 -37 -63 -95 l-5 -23 l-58 0 l5 19 q15 81 86.5 132.5 q71.5 51.5 170.5 51.5 Z" /><glyph glyph-name="four" unicode="4" d="M512 161 l-80 0 l-31 -161 l-56 0 l31 161 l-353 0 l8 39 l457 500 l49 0 l-96 -493 l80 0 l-9 -46 ZM96 207 l289 0 l78 405 l-367 -405 Z" /><glyph glyph-name="five" unicode="5" d="M545 651 l-299 0 l-75 -239 q72 22 146 22 q105 0 153 -56.5 q48 -56.5 28 -156.5 q-20 -104 -93 -166 q-73 -62 -180 -62 q-95 0 -146.5 48 q-51.5 48 -36.5 122 l3 18 l58 0 l-4 -21 q-10 -52 28 -85.5 q38 -33.5 107 -33.5 q77 0 133 46 q56 46 73 131 q16 84 -21.5 128 q-37.5 44 -121.5 44 q-34 0 -72 -7 q-38 -7 -59 -15 l-21 -7 l-36 12 l100 327 l345 0 l-9 -49 Z" /><glyph glyph-name="six" unicode="6" d="M347 457 q94 0 143.5 -58 q49.5 -58 26.5 -175 q-22 -116 -94.5 -173.5 q-72.5 -57.5 -173.5 -57.5 q-42 0 -74 10 q-32 10 -58.5 34 q-26.5 24 -38.5 64 q-12 40 -14.5 100.5 q-2.5 60.5 15.5 143.5 q71 362 312 362 q75 0 118.5 -33 q43.5 -33 45.5 -96 l-56 0 q-13 81 -114 81 q-50 0 -90 -20.5 q-40 -20.5 -66 -51.5 q-26 -31 -46 -77.5 q-20 -46.5 -30 -87 q-10 -40.5 -19 -91.5 q62 126 213 126 ZM328 409 q-73 0 -126.5 -42.5 q-53.5 -42.5 -72.5 -137.5 q-19 -94 17.5 -141 q36.5 -47 112.5 -47 q76 0 130 46 q54 46 71 138 q19 92 -17.5 138 q-36.5 46 -114.5 46 Z" /><glyph glyph-name="seven" unicode="7" d="M108 700 l402 0 l-8 -40 l-368 -660 l-59 0 l363 652 l-339 0 l9 48 Z" /><glyph glyph-name="eight" unicode="8" d="M505 189 q-18 -91 -92.5 -143.5 q-74.5 -52.5 -175.5 -52.5 q-102 0 -156.5 52.5 q-54.5 52.5 -36.5 143.5 q27 137 181 175 q-55 17 -79 59.5 q-24 42.5 -11 104.5 q16 84 82 131.5 q66 47.5 158 47.5 q91 0 138.5 -47.5 q47.5 -47.5 31.5 -131.5 q-12 -62 -52.5 -104.5 q-40.5 -42.5 -100.5 -59.5 q63 -18 95 -61.5 q32 -43.5 18 -113.5 ZM448 192 q14 70 -27 108.5 q-41 38.5 -117 38.5 q-77 0 -133 -38.5 q-56 -38.5 -70 -108.5 q-13 -71 27 -111 q40 -40 117 -40 q77 0 133 40 q56 40 70 111 ZM366 659 q-67 0 -114 -32.5 q-47 -32.5 -60 -98.5 q-13 -66 20.5 -103.5 q33.5 -37.5 100.5 -37.5 q67 0 114.5 37.5 q47.5 37.5 60.5 103.5 q13 66 -21.5 98.5 q-34.5 32.5 -100.5 32.5 Z" /><glyph glyph-name="nine" unicode="9" d="M276 260 q-93 0 -142 55.5 q-49 55.5 -27 168.5 q22 112 92.5 167.5 q70.5 55.5 169.5 55.5 q52 0 89 -16 q37 -16 63.5 -56 q26.5 -40 28.5 -107.5 q2 -67.5 -15 -171.5 q-38 -195 -117.5 -279 q-79.5 -84 -195.5 -84 q-81 0 -128.5 37 q-47.5 37 -42.5 106 l56 0 q1 -47 35 -71 q34 -24 88 -24 q195 0 252 336 q-59 -117 -206 -117 ZM294 308 q72 0 124 40.5 q52 40.5 70 130.5 q17 90 -19 135 q-36 45 -110 45 q-74 0 -126 -44.5 q-52 -44.5 -69 -131.5 q-17 -88 18 -131.5 q35 -43.5 112 -43.5 Z" /><glyph glyph-name="less" unicode="&lt;" d="M93 326 l0 48 l396 187 l0 -48 l-345 -163 l345 -163 l0 -48 l-396 187 Z" /><glyph glyph-name="equal" unicode="=" d="M96 427 l0 46 l390 0 l0 -46 l-390 0 ZM96 227 l0 46 l390 0 l0 -46 l-390 0 Z" /><glyph glyph-name="greater" unicode="&gt;" d="M489 374 l0 -48 l-396 -187 l0 48 l345 163 l-345 163 l0 48 l396 -187 Z" /><glyph glyph-name="question" unicode="?" d="M186 0 l18 96 l67 0 l-18 -96 l-67 0 ZM356 707 q96 0 144 -53.5 q48 -53.5 33 -130.5 q-8 -42 -34.5 -82 q-26.5 -40 -58.5 -67 q-32 -27 -63 -47.5 q-31 -20.5 -51 -30.5 l-21 -10 l-21 -89 l-55 0 l22 114 q8 3 21.5 9.5 q13.5 6.5 49.5 28.5 q36 22 64.5 45.5 q28.5 23.5 55 59.5 q26.5 36 33.5 72 q11 56 -23 93.5 q-34 37.5 -105 37.5 q-69 0 -119 -36 q-50 -36 -61 -93 l-6 -29 l-59 0 l6 29 q15 79 84.5 129 q69.5 50 163.5 50 Z" /><glyph glyph-name="at" unicode="@" d="M574 -101 l-10 -49 q-135 -27 -250 -27 q-170 0 -235 71 q-65 71 -42 194 l36 184 q22 116 127.5 190.5 q105.5 74.5 244.5 74.5 q114 0 173.5 -51.5 q59.5 -51.5 43.5 -133.5 l-68 -352 l-59 0 l12 61 q-75 -68 -176 -68 q-74 0 -111.5 36.5 q-37.5 36.5 -25.5 97.5 l9 45 q11 60 69.5 95.5 q58.5 35.5 144.5 40.5 l139 7 l9 43 q11 56 -35 92.5 q-46 36.5 -131 36.5 q-114 0 -201.5 -61 q-87.5 -61 -105.5 -154 l-36 -184 q-20 -102 32.5 -158.5 q52.5 -56.5 192.5 -56.5 q48 0 111.5 6.5 q63.5 6.5 102.5 12.5 l39 7 ZM396 39 q58 0 104.5 25.5 q46.5 25.5 59.5 65.5 l27 139 l-138 -7 q-64 -3 -103.5 -26 q-39.5 -23 -46.5 -59 l-10 -50 q-8 -39 21 -63.5 q29 -24.5 86 -24.5 Z" /><glyph glyph-name="A" unicode="a" d="M15 0 l-61 0 l378 700 l63 0 l107 -700 l-62 0 l-25 174 l-308 0 l-92 -174 ZM350 633 l-217 -410 l275 0 l-58 410 Z" /><glyph glyph-name="B" unicode="b" d="M246 0 l-214 0 l136 700 l188 0 q101 0 153 -43.5 q52 -43.5 39 -112.5 l-8 -42 q-10 -47 -45.5 -82.5 q-35.5 -35.5 -90.5 -54.5 q60 -18 87.5 -60 q27.5 -42 16.5 -98 l-8 -37 q-14 -75 -83.5 -122.5 q-69.5 -47.5 -170.5 -47.5 ZM309 337 l-153 0 l-56 -288 l153 0 q76 0 127 34 q51 34 62 88 l8 41 q11 56 -27 90.5 q-38 34.5 -114 34.5 ZM345 651 l-128 0 l-51 -265 l127 0 q76 0 126.5 31 q50.5 31 60.5 81 l9 44 q9 48 -29.5 78.5 q-38.5 30.5 -114.5 30.5 Z" /><glyph glyph-name="C" unicode="c" d="M462 210 l59 0 l-6 -33 q-16 -82 -90 -133 q-74 -51 -175 -51 q-101 0 -155.5 51.5 q-54.5 51.5 -38.5 132.5 l68 346 q15 81 89 132.5 q74 51.5 176 51.5 q101 0 155 -51 q54 -51 39 -133 l-8 -35 l-58 0 l8 38 q11 58 -30 94.5 q-41 36.5 -116 36.5 q-75 0 -130 -36.5 q-55 -36.5 -66 -94.5 l-68 -352 q-12 -58 28.5 -94.5 q40.5 -36.5 115.5 -36.5 q75 0 130 36.5 q55 36.5 67 94.5 l6 36 Z" /><glyph glyph-name="D" unicode="d" d="M254 0 l-222 0 l136 700 l222 0 q101 0 152 -50.5 q51 -50.5 35 -132.5 l-66 -334 q-15 -81 -85.5 -132 q-70.5 -51 -171.5 -51 ZM379 651 l-162 0 l-117 -602 l162 0 q75 0 127 36.5 q52 36.5 63 95.5 l67 339 q11 58 -27 94.5 q-38 36.5 -113 36.5 Z" /><glyph glyph-name="E" unicode="e" d="M415 49 l-9 -49 l-374 0 l136 700 l374 0 l-10 -49 l-315 0 l-54 -278 l287 0 l-9 -49 l-287 0 l-54 -275 l315 0 Z" /><glyph glyph-name="F" unicode="f" d="M421 373 l-9 -49 l-258 0 l-63 -324 l-59 0 l136 700 l368 0 l-10 -49 l-309 0 l-54 -278 l258 0 Z" /><glyph glyph-name="G" unicode="g" d="M330 363 l222 0 l-37 -186 q-16 -82 -90 -133 q-74 -51 -175 -51 q-101 0 -155.5 51.5 q-54.5 51.5 -38.5 132.5 l68 346 q15 81 89 132.5 q74 51.5 176 51.5 q101 0 155 -51 q54 -51 39 -133 l-8 -35 l-58 0 l8 38 q11 58 -30 94.5 q-41 36.5 -116 36.5 q-75 0 -130 -36.5 q-55 -36.5 -66 -94.5 l-68 -352 q-12 -58 28.5 -94.5 q40.5 -36.5 115.5 -36.5 q75 0 130 36.5 q55 36.5 67 94.5 l27 140 l-163 0 l10 49 Z" /><glyph glyph-name="H" unicode="h" d="M91 0 l-59 0 l136 700 l59 0 l-64 -327 l345 0 l64 327 l58 0 l-136 -700 l-58 0 l63 324 l-345 0 l-63 -324 Z" /><glyph glyph-name="I" unicode="i" d="M32 0 l136 700 l59 0 l-136 -700 l-59 0 Z" /><glyph glyph-name="J" unicode="j" d="M-33 43 l26 0 q80 0 137.5 43 q57.5 43 71.5 111 l98 503 l59 0 l-98 -503 q-18 -92 -94 -148 q-76 -56 -183 -56 l-26 0 l9 50 Z" /><glyph glyph-name="K" unicode="k" d="M32 0 l136 700 l59 0 l-136 -700 l-59 0 ZM409 0 l-224 362 l343 338 l69 0 l-344 -338 l224 -362 l-68 0 Z" /><glyph glyph-name="L" unicode="l" d="M403 49 l-9 -49 l-362 0 l136 700 l59 0 l-127 -651 l303 0 Z" /><glyph glyph-name="M" unicode="m" d="M87 0 l-55 0 l136 700 l51 0 l134 -480 l325 480 l50 0 l-136 -700 l-54 0 l110 572 l-294 -438 l-34 0 l-123 439 l-110 -573 Z" /><glyph glyph-name="N" unicode="n" d="M89 0 l-57 0 l136 700 l52 0 l234 -589 l116 589 l57 0 l-136 -700 l-52 0 l-236 588 l-114 -588 Z" /><glyph glyph-name="O" unicode="o" d="M515 177 q-16 -82 -90 -133 q-74 -51 -175 -51 q-101 0 -155.5 51.5 q-54.5 51.5 -38.5 132.5 l68 346 q15 81 89 132.5 q74 51.5 176 51.5 q101 0 155 -51 q54 -51 39 -133 l-68 -346 ZM456 174 l69 352 q11 58 -30 94.5 q-41 36.5 -116 36.5 q-75 0 -130 -36.5 q-55 -36.5 -66 -94.5 l-68 -352 q-12 -58 28.5 -94.5 q40.5 -36.5 115.5 -36.5 q75 0 130 36.5 q55 36.5 67 94.5 Z" /><glyph glyph-name="P" unicode="p" d="M298 297 l-150 0 l-57 -297 l-59 0 l136 700 l209 0 q100 0 151 -51 q51 -51 35 -132 l-7 -37 q-16 -82 -86.5 -132.5 q-70.5 -50.5 -171.5 -50.5 ZM366 651 l-149 0 l-59 -305 l149 0 q75 0 126.5 36.5 q51.5 36.5 62.5 95.5 l9 42 q11 58 -26.5 94.5 q-37.5 36.5 -112.5 36.5 Z" /><glyph glyph-name="Q" unicode="q" d="M453 -107 l-79 124 q-56 -24 -124 -24 q-101 0 -155.5 51.5 q-54.5 51.5 -38.5 132.5 l68 346 q15 81 89 132.5 q74 51.5 176 51.5 q101 0 155 -51 q54 -51 39 -133 l-68 -346 q-16 -82 -91 -134 l75 -120 l-46 -30 ZM456 174 l69 352 q11 58 -30 94.5 q-41 36.5 -116 36.5 q-75 0 -130 -36.5 q-55 -36.5 -66 -94.5 l-68 -352 q-12 -59 28 -95 q40 -36 116 -36 q75 0 130 36.5 q55 36.5 67 94.5 Z" /><glyph glyph-name="R" unicode="r" d="M148 297 l-57 -297 l-59 0 l136 700 l202 0 q100 0 151 -50.5 q51 -50.5 36 -132.5 l-7 -37 q-13 -66 -63 -112.5 q-50 -46.5 -124 -63.5 l121 -304 l-62 0 l-115 297 l-159 0 ZM360 651 l-143 0 l-59 -305 l142 0 q75 0 126.5 36.5 q51.5 36.5 63.5 95.5 l8 42 q11 58 -26.5 94.5 q-37.5 36.5 -111.5 36.5 Z" /><glyph glyph-name="S" unicode="s" d="M466 502 l5 26 q11 57 -25 93 q-36 36 -104 36 q-67 0 -115.5 -33.5 q-48.5 -33.5 -59.5 -90.5 q-7 -37 7 -66.5 q14 -29.5 46 -45.5 l183 -99 q41 -22 59 -62.5 q18 -40.5 8 -89.5 q-16 -80 -86.5 -128.5 q-70.5 -48.5 -166.5 -48.5 q-100 0 -152.5 50.5 q-52.5 50.5 -36.5 130.5 l5 29 l59 0 l-5 -29 q-11 -59 27 -95 q38 -36 112 -36 q71 0 122 34 q51 34 63 91 q15 78 -53 112 l-182 98 q-42 23 -60.5 63 q-18.5 40 -8.5 89 q16 81 84 129 q68 48 161 48 q94 0 143.5 -50 q49.5 -50 34.5 -129 l-5 -26 l-59 0 Z" /><glyph glyph-name="T" unicode="t" d="M589 700 l-9 -49 l-216 0 l-126 -651 l-58 0 l125 651 l-214 0 l10 49 l488 0 Z" /><glyph glyph-name="U" unicode="u" d="M560 700 l59 0 l-102 -523 q-16 -82 -90 -133 q-74 -51 -175 -51 q-102 0 -156 51.5 q-54 51.5 -38 132.5 l102 523 l59 0 l-103 -526 q-11 -58 29 -94.5 q40 -36.5 116 -36.5 q75 0 130 36.5 q55 36.5 66 94.5 l103 526 Z" /><glyph glyph-name="V" unicode="v" d="M577 700 l62 0 l-373 -700 l-62 0 l-101 700 l61 0 l85 -626 l328 626 Z" /><glyph glyph-name="W" unicode="w" d="M821 700 l60 0 l-320 -700 l-58 0 l-32 614 l-270 -614 l-57 0 l-49 700 l60 0 l34 -614 l271 614 l56 0 l32 -614 l273 614 Z" /><glyph glyph-name="X" unicode="x" d="M528 700 l67 0 l-273 -340 l150 -360 l-67 0 l-129 307 l-246 -307 l-67 0 l289 361 l-139 339 l67 0 l118 -286 l230 286 Z" /><glyph glyph-name="Y" unicode="y" d="M182 0 l55 287 l-147 413 l63 0 l124 -361 l267 361 l62 0 l-310 -412 l-55 -288 l-59 0 Z" /><glyph glyph-name="Z" unicode="z" d="M119 651 l10 49 l420 0 l-8 -40 l-475 -611 l356 0 l-9 -49 l-428 0 l7 40 l476 611 l-349 0 Z" /><glyph glyph-name="bracketleft" unicode="[" d="M-8 -150 l175 900 l223 0 l-9 -46 l-167 0 l-157 -808 l167 0 l-9 -46 l-223 0 Z" /><glyph glyph-name="backslash" unicode="\" d="M135 750 l214 -883 l-48 -17 l-214 883 l48 17 Z" /><glyph glyph-name="bracketright" unicode="]" d="M343 750 l-175 -900 l-223 0 l9 46 l167 0 l157 808 l-167 0 l9 46 l223 0 Z" /><glyph glyph-name="asciicircum" unicode="^" d="M347 700 l49 0 l100 -286 l-48 0 l-86 241 l-180 -241 l-48 0 l213 286 Z" /><glyph glyph-name="underscore" unicode="_" d="M0 -96 l0 46 l246 0 l0 -46 l-246 0 Z" /><glyph glyph-name="grave" unicode="`" d="M190 710 l147 -93 l-16 -19 l-163 78 l32 34 Z" /><glyph glyph-name="a" unicode="a" d="M497 530 l-103 -530 l-55 0 l11 59 q-72 -66 -167 -66 q-76 0 -116.5 40 q-40.5 40 -27.5 104 l49 256 q13 64 68.5 104 q55.5 40 131.5 40 q95 0 142 -67 l12 60 l55 0 ZM208 39 q60 0 104.5 28.5 q44.5 28.5 53.5 72.5 l48 250 q9 44 -24.5 72.5 q-33.5 28.5 -93.5 28.5 q-59 0 -101.5 -28 q-42.5 -28 -50.5 -70 l-50 -256 q-8 -42 23.5 -70 q31.5 -28 90.5 -28 Z" /><glyph glyph-name="b" unicode="b" d="M22 0 l136 700 l56 0 l-44 -228 q70 65 166 65 q76 0 116.5 -38.5 q40.5 -38.5 27.5 -102.5 l-50 -262 q-13 -64 -68 -102.5 q-55 -38.5 -131 -38.5 q-97 0 -142 65 l-11 -58 l-56 0 ZM223 39 q59 0 101 26.5 q42 26.5 50 68.5 l51 262 q8 42 -23.5 68.5 q-31.5 26.5 -90.5 26.5 q-57 0 -99.5 -25 q-42.5 -25 -55.5 -65 l-51 -261 l-1 -6 l-1 -3 q-4 -41 29.5 -66.5 q33.5 -25.5 90.5 -25.5 Z" /><glyph glyph-name="c" unicode="c" d="M416 353 l5 33 q9 46 -24 75.5 q-33 29.5 -94 29.5 q-62 0 -107 -29.5 q-45 -29.5 -54 -75.5 l-46 -242 q-10 -46 23.5 -75.5 q33.5 -29.5 95.5 -29.5 q61 0 105.5 29.5 q44.5 29.5 54.5 75.5 l6 33 l55 0 l-5 -30 q-13 -68 -76 -111 q-63 -43 -149 -43 q-86 0 -132 43 q-46 43 -33 111 l45 236 q13 68 76 111 q63 43 149 43 q86 0 132 -43 q46 -43 33 -111 l-5 -30 l-55 0 Z" /><glyph glyph-name="d" unicode="d" d="M394 0 l-55 0 l11 59 q-72 -66 -167 -66 q-76 0 -116.5 40 q-40.5 40 -27.5 104 l49 256 q13 64 68.5 104 q55.5 40 131.5 40 q95 0 142 -67 l45 230 l55 0 l-136 -700 ZM207 39 q60 0 105 28.5 q45 28.5 54 72.5 l48 250 q8 44 -25.5 72.5 q-33.5 28.5 -93.5 28.5 q-57 0 -100 -28 q-43 -28 -51 -70 l-50 -256 q-8 -42 23.5 -70 q31.5 -28 89.5 -28 Z" /><glyph glyph-name="e" unicode="e" d="M434 165 l-3 -18 q-13 -68 -76 -111 q-63 -43 -149 -43 q-86 0 -132 43 q-46 43 -33 111 l45 236 q13 68 76 111 q63 43 149 43 q86 0 132 -43 q46 -43 33 -111 l-27 -139 l-334 0 l-19 -100 q-10 -46 23.5 -75.5 q33.5 -29.5 95.5 -29.5 q61 0 105.5 29.5 q44.5 29.5 54.5 75.5 l4 21 l55 0 ZM303 491 q-62 0 -107 -29.5 q-45 -29.5 -54 -75.5 l-19 -96 l279 0 l19 96 q9 46 -24 75.5 q-33 29.5 -94 29.5 Z" /><glyph glyph-name="f" unicode="f" d="M68 530 l104 0 l12 60 q10 51 52.5 80.5 q42.5 29.5 104.5 29.5 l48 0 l-9 -46 l-48 0 q-37 0 -61.5 -16 q-24.5 -16 -30.5 -44 l-13 -64 l129 0 l-9 -46 l-129 0 l-131 -684 l-56 0 l132 684 l-105 0 l10 46 Z" /><glyph glyph-name="g" unicode="g" d="M171 -164 q60 0 103.5 29.5 q43.5 29.5 52.5 76.5 l23 116 q-72 -65 -166 -65 q-77 0 -117.5 40 q-40.5 40 -27.5 104 l49 256 q13 64 68.5 104 q55.5 40 131.5 40 q95 0 142 -67 l12 60 l55 0 l-114 -585 q-13 -68 -75 -111.5 q-62 -43.5 -146 -43.5 q-82 0 -129 40 q-47 40 -34 102 l2 10 l55 0 l-2 -10 q-8 -42 25 -69 q33 -27 92 -27 ZM208 39 q57 0 101 26.5 q44 26.5 55 68.5 l2 6 l48 250 q9 44 -24.5 72.5 q-33.5 28.5 -93.5 28.5 q-59 0 -101.5 -28 q-42.5 -28 -50.5 -70 l-50 -256 q-8 -42 23.5 -70 q31.5 -28 90.5 -28 Z" /><glyph glyph-name="h" unicode="h" d="M153 390 l-75 -390 l-56 0 l136 700 l56 0 l-45 -229 q71 66 167 66 q76 0 116.5 -38.5 q40.5 -38.5 27.5 -102.5 l-76 -396 l-55 0 l76 396 q8 42 -23.5 68.5 q-31.5 26.5 -90.5 26.5 q-61 0 -105 -28.5 q-44 -28.5 -53 -72.5 Z" /><glyph glyph-name="i" unicode="i" d="M22 0 l103 530 l56 0 l-103 -530 l-56 0 ZM141 615 l14 73 l56 0 l-15 -73 l-55 0 Z" /><glyph glyph-name="j" unicode="j" d="M-115 -200 l9 46 l15 0 q37 0 63 17.5 q26 17.5 32 46.5 l121 620 l55 0 l-120 -617 q-10 -50 -54.5 -81.5 q-44.5 -31.5 -105.5 -31.5 l-15 0 ZM140 615 l15 73 l55 0 l-14 -73 l-56 0 Z" /><glyph glyph-name="k" unicode="k" d="M319 0 l-172 275 l258 255 l64 0 l-258 -255 l173 -275 l-65 0 ZM22 0 l136 700 l56 0 l-136 -700 l-56 0 Z" /><glyph glyph-name="l" unicode="l" d="M174 46 l-9 -46 l-14 0 q-61 0 -89.5 29 q-28.5 29 -19.5 77 l116 594 l56 0 l-116 -594 q-5 -28 10 -44 q15 -16 51 -16 l15 0 Z" /><glyph glyph-name="m" unicode="m" d="M332 0 l76 396 q9 42 -20.5 68.5 q-29.5 26.5 -84.5 26.5 q-56 0 -98.5 -28.5 q-42.5 -28.5 -51.5 -72.5 l-75 -390 l-56 0 l103 530 l56 0 l-12 -56 q68 63 158 63 q53 0 88.5 -21 q35.5 -21 46.5 -59 q72 80 175 80 q73 0 111.5 -38.5 q38.5 -38.5 25.5 -102.5 l-76 -396 l-56 0 l76 396 q8 42 -21 68.5 q-29 26.5 -84 26.5 q-57 0 -99.5 -28.5 q-42.5 -28.5 -50.5 -72.5 l-75 -390 l-56 0 Z" /><glyph glyph-name="n" unicode="n" d="M153 390 l-75 -390 l-56 0 l103 530 l56 0 l-12 -58 q72 65 167 65 q76 0 116.5 -38.5 q40.5 -38.5 27.5 -102.5 l-76 -396 l-55 0 l76 396 q8 42 -23.5 68.5 q-31.5 26.5 -90.5 26.5 q-61 0 -105 -28.5 q-44 -28.5 -53 -72.5 Z" /><glyph glyph-name="o" unicode="o" d="M431 147 q-13 -68 -76 -111 q-63 -43 -149 -43 q-86 0 -132 43 q-46 43 -33 111 l45 236 q13 68 76 111 q63 43 149 43 q86 0 132 -43 q46 -43 33 -111 l-45 -236 ZM375 144 l46 242 q9 46 -24 75.5 q-33 29.5 -94 29.5 q-62 0 -107 -29.5 q-45 -29.5 -54 -75.5 l-46 -242 q-10 -46 23.5 -75.5 q33.5 -29.5 95.5 -29.5 q61 0 105.5 29.5 q44.5 29.5 54.5 75.5 Z" /><glyph glyph-name="p" unicode="p" d="M-17 -200 l142 730 l56 0 l-11 -58 q70 65 165 65 q77 0 117.5 -40 q40.5 -40 27.5 -104 l-50 -256 q-12 -64 -67.5 -104 q-55.5 -40 -132.5 -40 q-96 0 -141 66 l-50 -259 l-56 0 ZM222 39 q59 0 102 28 q43 28 51 70 l49 256 q8 42 -23.5 70 q-31.5 28 -89.5 28 q-56 0 -99 -25 q-43 -25 -56 -65 l-51 -261 l-1 -6 q-6 -42 27 -68.5 q33 -26.5 91 -26.5 Z" /><glyph glyph-name="q" unicode="q" d="M497 530 l-142 -730 l-55 0 l50 259 q-70 -66 -167 -66 q-76 0 -116.5 40 q-40.5 40 -27.5 104 l49 256 q13 64 68.5 104 q55.5 40 131.5 40 q95 0 142 -67 l12 60 l55 0 ZM208 39 q60 0 104.5 28.5 q44.5 28.5 53.5 72.5 l48 250 q9 44 -24.5 72.5 q-33.5 28.5 -93.5 28.5 q-59 0 -101.5 -28 q-42.5 -28 -50.5 -70 l-50 -256 q-8 -42 23.5 -70 q31.5 -28 90.5 -28 Z" /><glyph glyph-name="r" unicode="r" d="M147 363 l-69 -363 l-56 0 l103 530 l56 0 l-15 -74 q83 81 193 81 l-9 -50 q-78 0 -135 -34.5 q-57 -34.5 -68 -89.5 Z" /><glyph glyph-name="s" unicode="s" d="M285 537 q80 0 121 -42.5 q41 -42.5 28 -109.5 l-3 -15 l-55 0 l3 17 q9 46 -19.5 75 q-28.5 29 -83.5 29 q-52 0 -90.5 -25 q-38.5 -25 -46.5 -65 q-11 -55 46 -80 l149 -66 q38 -17 54.5 -50 q16.5 -33 9.5 -73 q-12 -61 -71 -100 q-59 -39 -139 -39 q-84 0 -128.5 42 q-44.5 42 -31.5 110 l3 15 l56 0 l-4 -17 q-9 -46 22.5 -75 q31.5 -29 91.5 -29 q56 0 97 25 q41 25 49 65 q11 54 -46 80 l-149 65 q-38 18 -54.5 50.5 q-16.5 32.5 -8.5 73.5 q12 61 68 100 q56 39 132 39 Z" /><glyph glyph-name="t" unicode="t" d="M275 46 l-8 -46 l-45 0 q-61 0 -94.5 30.5 q-33.5 30.5 -23.5 79.5 l72 374 l-116 0 l9 46 l116 0 l23 117 l56 0 l-23 -117 l129 0 l-10 -46 l-128 0 l-72 -374 q-6 -28 14 -46 q20 -18 56 -18 l45 0 Z" /><glyph glyph-name="u" unicode="u" d="M376 140 l76 390 l55 0 l-103 -530 l-55 0 l11 59 q-70 -66 -167 -66 q-77 0 -117.5 38.5 q-40.5 38.5 -27.5 102.5 l77 396 l56 0 l-78 -396 q-8 -42 23.5 -68.5 q31.5 -26.5 90.5 -26.5 q61 0 105.5 28.5 q44.5 28.5 53.5 72.5 Z" /><glyph glyph-name="v" unicode="v" d="M156 0 l-92 530 l56 0 l78 -457 l256 457 l56 0 l-298 -530 l-56 0 Z" /><glyph glyph-name="w" unicode="w" d="M437 0 l-46 434 l-212 -434 l-51 0 l-64 530 l57 0 l51 -442 l214 442 l48 0 l42 -442 l224 442 l57 0 l-270 -530 l-50 0 Z" /><glyph glyph-name="x" unicode="x" d="M328 0 l-109 230 l-198 -230 l-60 0 l234 275 l-116 255 l60 0 l98 -210 l179 210 l60 0 l-217 -255 l129 -275 l-60 0 Z" /><glyph glyph-name="y" unicode="y" d="M208 39 q57 0 101 26.5 q44 26.5 55 68.5 l2 6 l76 390 l55 0 l-114 -585 q-13 -68 -75 -111.5 q-62 -43.5 -146 -43.5 q-82 0 -129 40 q-47 40 -34 102 l2 10 l55 0 l-2 -10 q-8 -42 25 -69 q33 -27 92 -27 q60 0 103.5 29.5 q43.5 29.5 52.5 76.5 l23 116 q-72 -65 -166 -65 q-77 0 -117.5 40 q-40.5 40 -27.5 104 l76 393 l56 0 l-77 -393 q-8 -42 23.5 -70 q31.5 -28 90.5 -28 Z" /><glyph glyph-name="z" unicode="z" d="M92 484 l9 46 l363 0 l-7 -39 l-388 -445 l298 0 l-8 -46 l-368 0 l7 39 l387 445 l-293 0 Z" /><glyph glyph-name="braceleft" unicode="{" d="M158 213 l-47 -247 q-7 -37 12 -53.5 q19 -16.5 70 -16.5 l-9 -46 q-75 0 -107.5 29 q-32.5 29 -21.5 87 l48 247 q6 33 -12 48.5 q-18 15.5 -63 15.5 l1 7 l8 39 q87 0 99 63 l49 248 q23 116 174 116 l-9 -46 q-51 0 -77 -16.5 q-26 -16.5 -33 -53.5 l-48 -248 q-12 -61 -70 -86 q48 -25 36 -87 Z" /><glyph glyph-name="braceright" unicode="}" d="M146 386 l48 248 q7 37 -12.5 53.5 q-19.5 16.5 -70.5 16.5 l9 46 q76 0 108.5 -29 q32.5 -29 21.5 -87 l-49 -248 q-6 -32 12 -47.5 q18 -15.5 64 -15.5 l-6 -29 l-3 -17 q-88 0 -100 -64 l-48 -247 q-23 -116 -175 -116 l9 46 q51 0 77.5 16.5 q26.5 16.5 33.5 53.5 l47 247 q12 63 70 87 q-48 24 -36 86 Z" /><glyph glyph-name="asciitilde" unicode="~" d="M203 403 q40 0 89 -29 q49 -29 79 -29 q28 0 52 14.5 q24 14.5 35 29.5 l10 15 l29 -26 q-2 -3 -5 -8.5 q-3 -5.5 -14 -19.5 q-11 -14 -24 -24.5 q-13 -10.5 -35 -19 q-22 -8.5 -47 -8.5 q-40 0 -88.5 29 q-48.5 29 -77.5 29 q-28 0 -51 -15 q-23 -15 -32 -29 l-9 -15 l-29 27 q1 3 3.5 8.5 q2.5 5.5 13 19 q10.5 13.5 22.5 24 q12 10.5 33.5 19 q21.5 8.5 45.5 8.5 Z" /><glyph glyph-name="afii10023" unicode="&#x401;" d="M415 49 l-9 -49 l-374 0 l136 700 l374 0 l-10 -49 l-315 0 l-54 -278 l287 0 l-9 -49 l-287 0 l-54 -275 l315 0 ZM251 772 l13 70 l50 0 l-14 -70 l-49 0 ZM425 772 l13 70 l50 0 l-14 -70 l-49 0 Z" /><glyph glyph-name="afii10017" unicode="&#x410;" d="M15 0 l-61 0 l378 700 l63 0 l107 -700 l-62 0 l-25 174 l-308 0 l-92 -174 ZM350 633 l-217 -410 l275 0 l-58 410 Z" /><glyph glyph-name="afii10018" unicode="&#x411;" d="M247 0 l-215 0 l136 700 l375 0 l-10 -49 l-316 0 l-47 -245 l155 0 q100 0 150 -50.5 q50 -50.5 34 -132.5 l-8 -40 q-16 -82 -85 -132.5 q-69 -50.5 -169 -50.5 ZM315 357 l-155 0 l-60 -308 l155 0 q74 0 125 36.5 q51 36.5 62 94.5 l9 46 q11 59 -25.5 95 q-36.5 36 -110.5 36 Z" /><glyph glyph-name="afii10019" unicode="&#x412;" d="M246 0 l-214 0 l136 700 l188 0 q101 0 153 -43.5 q52 -43.5 39 -112.5 l-8 -42 q-10 -47 -45.5 -82.5 q-35.5 -35.5 -90.5 -54.5 q60 -18 87.5 -60 q27.5 -42 16.5 -98 l-8 -37 q-14 -75 -83.5 -122.5 q-69.5 -47.5 -170.5 -47.5 ZM309 337 l-153 0 l-56 -288 l153 0 q76 0 127 34 q51 34 62 88 l8 41 q11 56 -27 90.5 q-38 34.5 -114 34.5 ZM345 651 l-128 0 l-51 -265 l127 0 q76 0 126.5 31 q50.5 31 60.5 81 l9 44 q9 48 -29.5 78.5 q-38.5 30.5 -114.5 30.5 Z" /><glyph glyph-name="afii10020" unicode="&#x413;" d="M502 700 l-10 -49 l-275 0 l-126 -651 l-59 0 l136 700 l334 0 Z" /><glyph glyph-name="afii10021" unicode="&#x414;" d="M653 700 l-127 -651 l104 0 l-38 -196 l-59 0 l28 147 l-536 0 l-28 -147 l-58 0 l37 196 l72 0 q20 17 38 44.5 q18 27.5 42.5 85 q24.5 57.5 52.5 166 q28 108.5 58 262.5 l19 93 l395 0 ZM295 607 q-53 -268 -95.5 -391.5 q-42.5 -123.5 -92.5 -166.5 l360 0 l117 602 l-280 0 l-9 -44 Z" /><glyph glyph-name="afii10022" unicode="&#x415;" d="M415 49 l-9 -49 l-374 0 l136 700 l374 0 l-10 -49 l-315 0 l-54 -278 l287 0 l-9 -49 l-287 0 l-54 -275 l315 0 Z" /><glyph glyph-name="afii10024" unicode="&#x416;" d="M332 0 l136 700 l59 0 l-136 -700 l-59 0 ZM693 0 l-213 362 l331 338 l66 0 l-331 -338 l213 -362 l-66 0 ZM382 362 l-353 -362 l-66 0 l353 362 l-199 338 l66 0 l199 -338 Z" /><glyph glyph-name="afii10025" unicode="&#x417;" d="M376 707 q92 0 141.5 -45 q49.5 -45 35.5 -116 l-9 -45 q-9 -47 -48.5 -83 q-39.5 -36 -100.5 -54 q65 -16 97 -56.5 q32 -40.5 22 -95.5 l-10 -47 q-14 -75 -88.5 -123.5 q-74.5 -48.5 -175.5 -48.5 q-103 0 -157 51 q-54 51 -38 133 l5 33 l59 0 l-6 -36 q-12 -58 28.5 -94.5 q40.5 -36.5 117.5 -36.5 q75 0 130.5 34.5 q55.5 34.5 66.5 88.5 l10 51 q10 53 -31 86.5 q-41 33.5 -116 33.5 l-78 0 l8 49 l53 0 q75 0 129 31 q54 31 63 80 l10 47 q10 50 -25.5 81.5 q-35.5 31.5 -102.5 31.5 q-73 0 -128.5 -36.5 q-55.5 -36.5 -66.5 -94.5 l-7 -38 l-59 0 l7 35 q16 81 90 132.5 q74 51.5 174 51.5 Z" /><glyph glyph-name="afii10026" unicode="&#x418;" d="M85 0 l-53 0 l136 700 l59 0 l-116 -592 l467 592 l52 0 l-136 -700 l-59 0 l115 592 l-465 -592 Z" /><glyph glyph-name="afii10027" unicode="&#x419;" d="M85 0 l-53 0 l136 700 l59 0 l-116 -592 l467 592 l52 0 l-136 -700 l-59 0 l115 592 l-465 -592 ZM527 883 l45 0 l-3 -17 q-8 -43 -51.5 -70.5 q-43.5 -27.5 -102.5 -27.5 q-59 0 -91.5 27.5 q-32.5 27.5 -24.5 70.5 l4 17 l45 0 l-4 -21 q-5 -24 17 -40.5 q22 -16.5 61 -16.5 q39 0 67.5 16.5 q28.5 16.5 33.5 40.5 l4 21 Z" /><glyph glyph-name="afii10028" unicode="&#x41a;" d="M32 0 l136 700 l59 0 l-136 -700 l-59 0 ZM409 0 l-224 362 l343 338 l69 0 l-344 -338 l224 -362 l-68 0 Z" /><glyph glyph-name="afii10029" unicode="&#x41b;" d="M-34 43 l10 0 q27 0 43 4 q16 4 36.5 22 q20.5 18 35.5 53.5 q15 35.5 35 98.5 q20 63 41 157 q21 94 47 229 l18 93 l400 0 l-136 -700 l-59 0 l126 651 l-285 0 l-9 -44 q-28 -146 -49 -241.5 q-21 -95.5 -44 -167.5 q-23 -72 -41.5 -110 q-18.5 -38 -46.5 -60.5 q-28 -22.5 -54 -28.5 q-26 -6 -68 -6 l-8 0 l8 50 Z" /><glyph glyph-name="afii10030" unicode="&#x41c;" d="M87 0 l-55 0 l136 700 l51 0 l134 -480 l325 480 l50 0 l-136 -700 l-54 0 l110 572 l-294 -438 l-34 0 l-123 439 l-110 -573 Z" /><glyph glyph-name="afii10031" unicode="&#x41d;" d="M91 0 l-59 0 l136 700 l59 0 l-64 -327 l345 0 l64 327 l58 0 l-136 -700 l-58 0 l63 324 l-345 0 l-63 -324 Z" /><glyph glyph-name="afii10032" unicode="&#x41e;" d="M515 177 q-16 -82 -90 -133 q-74 -51 -175 -51 q-101 0 -155.5 51.5 q-54.5 51.5 -38.5 132.5 l68 346 q15 81 89 132.5 q74 51.5 176 51.5 q101 0 155 -51 q54 -51 39 -133 l-68 -346 ZM456 174 l69 352 q11 58 -30 94.5 q-41 36.5 -116 36.5 q-75 0 -130 -36.5 q-55 -36.5 -66 -94.5 l-68 -352 q-12 -58 28.5 -94.5 q40.5 -36.5 115.5 -36.5 q75 0 130 36.5 q55 36.5 67 94.5 Z" /><glyph glyph-name="afii10033" unicode="&#x41f;" d="M91 0 l-59 0 l136 700 l459 0 l-136 -700 l-59 0 l126 651 l-341 0 l-126 -651 Z" /><glyph glyph-name="afii10034" unicode="&#x420;" d="M298 297 l-150 0 l-57 -297 l-59 0 l136 700 l209 0 q100 0 151 -51 q51 -51 35 -132 l-7 -37 q-16 -82 -86.5 -132.5 q-70.5 -50.5 -171.5 -50.5 ZM366 651 l-149 0 l-59 -305 l149 0 q75 0 126.5 36.5 q51.5 36.5 62.5 95.5 l9 42 q11 58 -26.5 94.5 q-37.5 36.5 -112.5 36.5 Z" /><glyph glyph-name="afii10035" unicode="&#x421;" d="M462 210 l59 0 l-6 -33 q-16 -82 -90 -133 q-74 -51 -175 -51 q-101 0 -155.5 51.5 q-54.5 51.5 -38.5 132.5 l68 346 q15 81 89 132.5 q74 51.5 176 51.5 q101 0 155 -51 q54 -51 39 -133 l-8 -35 l-58 0 l8 38 q11 58 -30 94.5 q-41 36.5 -116 36.5 q-75 0 -130 -36.5 q-55 -36.5 -66 -94.5 l-68 -352 q-12 -58 28.5 -94.5 q40.5 -36.5 115.5 -36.5 q75 0 130 36.5 q55 36.5 67 94.5 l6 36 Z" /><glyph glyph-name="afii10036" unicode="&#x422;" d="M589 700 l-9 -49 l-216 0 l-126 -651 l-58 0 l125 651 l-214 0 l10 49 l488 0 Z" /><glyph glyph-name="afii10037" unicode="&#x423;" d="M90 700 l61 0 l115 -431 l269 431 l60 0 l-382 -612 q-57 -95 -164 -95 l-30 0 l10 56 l32 0 q33 0 60.5 15.5 q27.5 15.5 41.5 38.5 l64 103 l-137 494 Z" /><glyph glyph-name="afii10038" unicode="&#x424;" d="M425 67 l-67 0 l-14 -74 l-59 0 l14 74 l-68 0 q-97 0 -146 50.5 q-49 50.5 -33 132.5 l39 200 q16 82 84.5 132.5 q68.5 50.5 165.5 50.5 l68 0 l15 74 l58 0 l-14 -74 l68 0 q96 0 145 -51 q49 -51 33 -132 l-39 -200 q-16 -82 -84.5 -132.5 q-68.5 -50.5 -165.5 -50.5 ZM111 247 q-11 -59 24 -95 q35 -36 106 -36 l68 0 l91 468 l-69 0 q-70 0 -119.5 -36.5 q-49.5 -36.5 -60.5 -94.5 l-40 -206 ZM526 584 l-68 0 l-90 -468 l67 0 q71 0 120.5 36 q49.5 36 60.5 95 l40 206 q11 58 -24 94.5 q-35 36.5 -106 36.5 Z" /><glyph glyph-name="afii10039" unicode="&#x425;" d="M528 700 l67 0 l-273 -340 l150 -360 l-67 0 l-129 307 l-246 -307 l-67 0 l289 361 l-139 339 l67 0 l118 -286 l230 286 Z" /><glyph glyph-name="afii10040" unicode="&#x426;" d="M168 700 l59 0 l-127 -651 l341 0 l127 651 l59 0 l-127 -651 l105 0 l-39 -195 l-59 0 l28 146 l-503 0 l136 700 Z" /><glyph glyph-name="afii10041" unicode="&#x427;" d="M201 700 l-40 -206 q-13 -62 25.5 -96.5 q38.5 -34.5 133.5 -34.5 q68 0 133 7 l64 330 l59 0 l-136 -700 l-59 0 l62 321 q-68 -7 -135 -7 q-119 0 -170.5 49.5 q-51.5 49.5 -35.5 133.5 l40 203 l59 0 Z" /><glyph glyph-name="afii10042" unicode="&#x428;" d="M168 700 l59 0 l-127 -651 l303 0 l127 651 l59 0 l-127 -651 l304 0 l127 651 l58 0 l-136 -700 l-783 0 l136 700 Z" /><glyph glyph-name="afii10043" unicode="&#x429;" d="M168 700 l59 0 l-127 -651 l303 0 l127 651 l59 0 l-127 -651 l304 0 l127 651 l58 0 l-127 -651 l105 0 l-39 -195 l-59 0 l28 146 l-827 0 l136 700 Z" /><glyph glyph-name="afii10044" unicode="&#x42a;" d="M91 651 l10 49 l239 0 l-58 -297 l151 0 q101 0 152 -50.5 q51 -50.5 35 -132.5 l-8 -37 q-15 -81 -85.5 -132 q-70.5 -51 -171.5 -51 l-210 0 l126 651 l-180 0 ZM423 354 l-150 0 l-60 -305 l150 0 q75 0 127 36.5 q52 36.5 63 94.5 l9 42 q11 59 -27 95.5 q-38 36.5 -112 36.5 Z" /><glyph glyph-name="afii10045" unicode="&#x42b;" d="M242 0 l-210 0 l136 700 l59 0 l-58 -297 l151 0 q101 0 152 -50.5 q51 -50.5 35 -132.5 l-8 -37 q-15 -81 -85.5 -132 q-70.5 -51 -171.5 -51 ZM309 354 l-149 0 l-60 -305 l150 0 q75 0 127 36.5 q52 36.5 63 94.5 l8 42 q12 59 -26 95.5 q-38 36.5 -113 36.5 ZM560 0 l136 700 l59 0 l-136 -700 l-59 0 Z" /><glyph glyph-name="afii10046" unicode="&#x42c;" d="M242 0 l-210 0 l136 700 l59 0 l-58 -297 l151 0 q101 0 152 -50.5 q51 -50.5 35 -132.5 l-8 -37 q-15 -81 -85.5 -132 q-70.5 -51 -171.5 -51 ZM309 354 l-149 0 l-60 -305 l150 0 q75 0 127 36.5 q52 36.5 63 94.5 l8 42 q12 59 -26 95.5 q-38 36.5 -113 36.5 Z" /><glyph glyph-name="afii10047" unicode="&#x42d;" d="M58 210 l59 0 l-6 -36 q-12 -58 28.5 -94.5 q40.5 -36.5 115.5 -36.5 q76 0 131 36.5 q55 36.5 66 94.5 l29 151 l-214 0 l9 50 l214 0 l30 151 q12 58 -28.5 94.5 q-40.5 36.5 -116.5 36.5 q-75 0 -130 -36.5 q-55 -36.5 -66 -94.5 l-7 -38 l-59 0 l7 35 q15 81 89.5 132.5 q74.5 51.5 175.5 51.5 q101 0 155 -51 q54 -51 39 -133 l-68 -346 q-16 -82 -90 -133 q-74 -51 -175 -51 q-101 0 -155.5 51.5 q-54.5 51.5 -38.5 132.5 l6 33 Z" /><glyph glyph-name="afii10048" unicode="&#x42e;" d="M91 0 l-59 0 l136 700 l59 0 l-64 -327 l157 0 l30 150 q15 81 86.5 132.5 q71.5 51.5 168.5 51.5 q97 0 148.5 -51 q51.5 -51 35.5 -133 l-67 -346 q-16 -82 -87.5 -133 q-71.5 -51 -167.5 -51 q-97 0 -149 51 q-52 51 -36 133 l29 147 l-157 0 l-63 -324 ZM662 174 l69 352 q11 58 -27 94.5 q-38 36.5 -109 36.5 q-71 0 -123 -36.5 q-52 -36.5 -63 -94.5 l-68 -352 q-12 -58 25.5 -94.5 q37.5 -36.5 108.5 -36.5 q71 0 123.5 36.5 q52.5 36.5 63.5 94.5 Z" /><glyph glyph-name="afii10049" unicode="&#x42f;" d="M582 700 l-136 -700 l-59 0 l57 297 l-144 0 l-229 -297 l-61 0 l235 302 q-74 13 -109.5 61 q-35.5 48 -21.5 117 l7 37 q16 81 87 132 q71 51 172 51 l202 0 ZM173 478 q-12 -59 25.5 -95.5 q37.5 -36.5 112.5 -36.5 l143 0 l59 305 l-143 0 q-74 0 -126 -36.5 q-52 -36.5 -63 -94.5 l-8 -42 Z" /><glyph glyph-name="afii10065" unicode="&#x430;" d="M497 530 l-103 -530 l-55 0 l11 59 q-72 -66 -167 -66 q-76 0 -116.5 40 q-40.5 40 -27.5 104 l49 256 q13 64 68.5 104 q55.5 40 131.5 40 q95 0 142 -67 l12 60 l55 0 ZM208 39 q60 0 104.5 28.5 q44.5 28.5 53.5 72.5 l48 250 q9 44 -24.5 72.5 q-33.5 28.5 -93.5 28.5 q-59 0 -101.5 -28 q-42.5 -28 -50.5 -70 l-50 -256 q-8 -42 23.5 -70 q31.5 -28 90.5 -28 Z" /><glyph glyph-name="afii10066" unicode="&#x431;" d="M356.5 36 q-62.5 -43 -148.5 -43 q-86 0 -132.5 43 q-46.5 43 -33.5 111 l71 363 q14 76 66 124 q52 48 131 56 l207 20 l-5 -48 l-200 -21 q-58 -5 -95 -39.5 q-37 -34.5 -48 -91.5 l-10 -49 q61 66 172 66 q78 0 119 -40 q41 -40 28 -104 l-46 -236 q-13 -68 -75.5 -111 ZM216 39 q61 0 106 29.5 q45 29.5 54 75.5 l46 239 q8 42 -24.5 70 q-32.5 28 -92.5 28 q-61 0 -106.5 -27 q-45.5 -27 -54.5 -70 l-47 -240 q-9 -46 24 -75.5 q33 -29.5 95 -29.5 Z" /><glyph glyph-name="afii10067" unicode="&#x432;" d="M22 0 l103 530 l169 0 q86 0 129.5 -35 q43.5 -35 32.5 -93 l-3 -20 q-15 -74 -104 -109 q46 -15 67 -46.5 q21 -31.5 13 -73.5 l-4 -21 q-11 -59 -69 -95.5 q-58 -36.5 -144 -36.5 l-190 0 ZM374 157 q8 41 -23 65.5 q-31 24.5 -93 24.5 l-132 0 l-39 -201 l132 0 q62 0 102.5 24.5 q40.5 24.5 48.5 65.5 l4 21 ZM400 398 q8 39 -23 62.5 q-31 23.5 -93 23.5 l-112 0 l-37 -191 l112 0 q61 0 101 23.5 q40 23.5 48 62.5 l4 19 Z" /><glyph glyph-name="afii10068" unicode="&#x433;" d="M22 0 l103 530 l300 0 l-9 -46 l-244 0 l-94 -484 l-56 0 Z" /><glyph glyph-name="afii10069" unicode="&#x434;" d="M171 -164 q60 0 103.5 29.5 q43.5 29.5 52.5 76.5 l23 116 q-72 -65 -166 -65 q-77 0 -117.5 40 q-40.5 40 -27.5 104 l49 256 q13 64 68.5 104 q55.5 40 131.5 40 q95 0 142 -67 l12 60 l55 0 l-114 -585 q-13 -68 -75 -111.5 q-62 -43.5 -146 -43.5 q-82 0 -129 40 q-47 40 -34 102 l2 10 l55 0 l-2 -10 q-8 -42 25 -69 q33 -27 92 -27 ZM208 39 q57 0 101 26.5 q44 26.5 55 68.5 l2 6 l48 250 q9 44 -24.5 72.5 q-33.5 28.5 -93.5 28.5 q-59 0 -101.5 -28 q-42.5 -28 -50.5 -70 l-50 -256 q-8 -42 23.5 -70 q31.5 -28 90.5 -28 Z" /><glyph glyph-name="afii10070" unicode="&#x435;" d="M434 165 l-3 -18 q-13 -68 -76 -111 q-63 -43 -149 -43 q-86 0 -132 43 q-46 43 -33 111 l45 236 q13 68 76 111 q63 43 149 43 q86 0 132 -43 q46 -43 33 -111 l-27 -139 l-334 0 l-19 -100 q-10 -46 23.5 -75.5 q33.5 -29.5 95.5 -29.5 q61 0 105.5 29.5 q44.5 29.5 54.5 75.5 l4 21 l55 0 ZM303 491 q-62 0 -107 -29.5 q-45 -29.5 -54 -75.5 l-19 -96 l279 0 l19 96 q9 46 -24 75.5 q-33 29.5 -94 29.5 Z" /><glyph glyph-name="afii10072" unicode="&#x436;" d="M573 0 l-180 275 l267 255 l61 0 l-269 -255 l183 -275 l-62 0 ZM272 0 l103 530 l54 0 l-103 -530 l-54 0 ZM-39 0 l290 275 l-170 255 l62 0 l167 -255 l-286 -275 l-63 0 Z" /><glyph glyph-name="afii10073" unicode="&#x437;" d="M289 537 q80 0 125 -37 q45 -37 34 -94 l-4 -24 q-15 -74 -102 -109 q44 -14 65 -45.5 q21 -31.5 13 -74.5 l-4 -25 q-12 -59 -77 -97 q-65 -38 -151 -38 q-87 0 -130.5 41 q-43.5 41 -30.5 108 l4 23 l56 0 l-5 -23 q-9 -46 21.5 -74.5 q30.5 -28.5 92.5 -28.5 q61 0 109 26 q48 26 56 67 l4 24 q8 40 -21.5 65.5 q-29.5 25.5 -83.5 25.5 l-76 0 l9 46 l55 0 q54 0 93 24 q39 24 47 63 l4 22 q8 39 -24.5 64 q-32.5 25 -88.5 25 q-59 0 -100 -28.5 q-41 -28.5 -50 -74.5 l-4 -23 l-56 0 l5 23 q13 66 72 107.5 q59 41.5 143 41.5 Z" /><glyph glyph-name="afii10074" unicode="&#x438;" d="M363 0 l85 437 l-379 -437 l-47 0 l103 530 l56 0 l-86 -437 l379 437 l47 0 l-103 -530 l-55 0 Z" /><glyph glyph-name="afii10075" unicode="&#x439;" d="M363 0 l84 437 l-378 -437 l-47 0 l103 530 l56 0 l-86 -436 l379 436 l47 0 l-103 -530 l-55 0 ZM448 710 l45 0 l-4 -16 q-8 -44 -51 -71.5 q-43 -27.5 -102 -27.5 q-59 0 -91.5 27.5 q-32.5 27.5 -24.5 71.5 l4 16 l45 0 l-4 -21 q-5 -24 17 -40.5 q22 -16.5 61 -16.5 q39 0 67 16.5 q28 16.5 33 40.5 l5 21 Z" /><glyph glyph-name="afii10076" unicode="&#x43a;" d="M336 0 l-188 275 l274 255 l66 0 l-276 -255 l190 -275 l-66 0 ZM22 0 l103 530 l56 0 l-103 -530 l-56 0 Z" /><glyph glyph-name="afii10077" unicode="&#x43b;" d="M-33 44 l15 0 q27 0 46.5 13.5 q19.5 13.5 41.5 56 q22 42.5 44.5 127.5 q22.5 85 49.5 223 l13 66 l331 0 l-103 -530 l-56 0 l94 484 l-223 0 l-4 -20 q-39 -202 -74 -302 q-35 -100 -71 -132 q-36 -32 -97 -32 l-15 0 l8 46 Z" /><glyph glyph-name="afii10078" unicode="&#x43c;" d="M22 0 l103 530 l48 0 l131 -377 l279 377 l47 0 l-102 -530 l-52 0 l82 423 l-255 -346 l-28 0 l-119 345 l-82 -422 l-52 0 Z" /><glyph glyph-name="afii10079" unicode="&#x43d;" d="M349 0 l48 250 l-271 0 l-48 -250 l-56 0 l103 530 l56 0 l-46 -234 l271 0 l46 234 l55 0 l-103 -530 l-55 0 Z" /><glyph glyph-name="afii10080" unicode="&#x43e;" d="M431 147 q-13 -68 -76 -111 q-63 -43 -149 -43 q-86 0 -132 43 q-46 43 -33 111 l45 236 q13 68 76 111 q63 43 149 43 q86 0 132 -43 q46 -43 33 -111 l-45 -236 ZM375 144 l46 242 q9 46 -24 75.5 q-33 29.5 -94 29.5 q-62 0 -107 -29.5 q-45 -29.5 -54 -75.5 l-46 -242 q-10 -46 23.5 -75.5 q33.5 -29.5 95.5 -29.5 q61 0 105.5 29.5 q44.5 29.5 54.5 75.5 Z" /><glyph glyph-name="afii10081" unicode="&#x43f;" d="M349 0 l94 484 l-271 0 l-94 -484 l-56 0 l103 530 l382 0 l-103 -530 l-55 0 Z" /><glyph glyph-name="afii10082" unicode="&#x440;" d="M-17 -200 l142 730 l56 0 l-11 -58 q70 65 165 65 q77 0 117.5 -40 q40.5 -40 27.5 -104 l-50 -256 q-12 -64 -67.5 -104 q-55.5 -40 -132.5 -40 q-96 0 -141 66 l-50 -259 l-56 0 ZM222 39 q59 0 102 28 q43 28 51 70 l49 256 q8 42 -23.5 70 q-31.5 28 -89.5 28 q-56 0 -99 -25 q-43 -25 -56 -65 l-51 -261 l-1 -6 q-6 -42 27 -68.5 q33 -26.5 91 -26.5 Z" /><glyph glyph-name="afii10083" unicode="&#x441;" d="M416 353 l5 33 q9 46 -24 75.5 q-33 29.5 -94 29.5 q-62 0 -107 -29.5 q-45 -29.5 -54 -75.5 l-46 -242 q-10 -46 23.5 -75.5 q33.5 -29.5 95.5 -29.5 q61 0 105.5 29.5 q44.5 29.5 54.5 75.5 l6 33 l55 0 l-5 -30 q-13 -68 -76 -111 q-63 -43 -149 -43 q-86 0 -132 43 q-46 43 -33 111 l45 236 q13 68 76 111 q63 43 149 43 q86 0 132 -43 q46 -43 33 -111 l-5 -30 l-55 0 Z" /><glyph glyph-name="afii10084" unicode="&#x442;" d="M68 484 l10 46 l415 0 l-10 -46 l-179 0 l-94 -484 l-56 0 l94 484 l-180 0 Z" /><glyph glyph-name="afii10085" unicode="&#x443;" d="M208 39 q57 0 101 26.5 q44 26.5 55 68.5 l2 6 l76 390 l55 0 l-114 -585 q-13 -68 -75 -111.5 q-62 -43.5 -146 -43.5 q-82 0 -129 40 q-47 40 -34 102 l2 10 l55 0 l-2 -10 q-8 -42 25 -69 q33 -27 92 -27 q60 0 103.5 29.5 q43.5 29.5 52.5 76.5 l23 116 q-72 -65 -166 -65 q-77 0 -117.5 40 q-40.5 40 -27.5 104 l76 393 l56 0 l-77 -393 q-8 -42 23.5 -70 q31.5 -28 90.5 -28 Z" /><glyph glyph-name="afii10086" unicode="&#x444;" d="M247 -200 l49 251 q-62 -58 -138 -58 q-65 0 -98.5 40 q-33.5 40 -20.5 104 l49 256 q13 64 61 104 q48 40 113 40 q78 0 117 -60 l43 223 l56 0 l-43 -220 q62 57 138 57 q65 0 98 -40 q33 -40 20 -104 l-49 -256 q-13 -64 -61 -104 q-48 -40 -113 -40 q-77 0 -116 58 l-49 -251 l-56 0 ZM110 67 q24 -28 72 -28 q48 0 85.5 28.5 q37.5 28.5 45.5 72.5 l49 250 l-1 0 q9 44 -16.5 72.5 q-25.5 28.5 -74.5 28.5 q-47 0 -82.5 -27.5 q-35.5 -27.5 -43.5 -70.5 l-50 -256 q-8 -42 16 -70 ZM385.5 67.5 q25.5 -28.5 73.5 -28.5 q48 0 83.5 28 q35.5 28 43.5 70 l49 256 q9 42 -15.5 70 q-24.5 28 -72.5 28 q-44 0 -79.5 -25 q-35.5 -25 -47.5 -65 l-51 -261 q-9 -44 16.5 -72.5 Z" /><glyph glyph-name="afii10087" unicode="&#x445;" d="M328 0 l-109 230 l-198 -230 l-60 0 l234 275 l-116 255 l60 0 l98 -210 l179 210 l60 0 l-217 -255 l129 -275 l-60 0 Z" /><glyph glyph-name="afii10088" unicode="&#x446;" d="M22 0 l103 530 l56 0 l-94 -484 l271 0 l94 484 l55 0 l-94 -484 l92 0 l-36 -183 l-55 0 l26 137 l-418 0 Z" /><glyph glyph-name="afii10089" unicode="&#x447;" d="M474 530 l-103 -530 l-56 0 l46 240 q-59 -23 -138 -23 q-90 0 -129 38 q-39 38 -27 102 l34 173 l56 0 l-34 -173 q-8 -45 21 -69.5 q29 -24.5 97 -24.5 q66 0 129 22 l48 245 l56 0 Z" /><glyph glyph-name="afii10090" unicode="&#x448;" d="M22 0 l103 530 l56 0 l-94 -484 l251 0 l94 484 l56 0 l-94 -484 l250 0 l94 484 l56 0 l-103 -530 l-669 0 Z" /><glyph glyph-name="afii10091" unicode="&#x449;" d="M701 -137 l26 137 l-705 0 l103 530 l56 0 l-94 -484 l251 0 l94 484 l56 0 l-94 -484 l250 0 l94 484 l56 0 l-94 -484 l92 0 l-36 -183 l-55 0 Z" /><glyph glyph-name="afii10092" unicode="&#x44a;" d="M52 484 l9 46 l203 0 l-40 -205 l128 0 q85 0 129 -41 q44 -41 30 -109 l-5 -25 q-13 -68 -72 -109 q-59 -41 -145 -41 l-183 0 l94 484 l-148 0 ZM342 279 l-127 0 l-45 -233 l127 0 q61 0 102.5 27 q41.5 27 50.5 74 l6 31 q8 46 -22.5 73.5 q-30.5 27.5 -91.5 27.5 Z" /><glyph glyph-name="afii10093" unicode="&#x44b;" d="M22 0 l103 530 l56 0 l-40 -205 l127 0 q86 0 129.5 -41 q43.5 -41 29.5 -109 l-4 -25 q-14 -68 -73 -109 q-59 -41 -145 -41 l-183 0 ZM258 279 l-126 0 l-45 -233 l126 0 q61 0 102.5 27 q41.5 27 50.5 74 l6 31 q9 46 -21.5 73.5 q-30.5 27.5 -92.5 27.5 ZM474 0 l103 530 l56 0 l-103 -530 l-56 0 Z" /><glyph glyph-name="afii10094" unicode="&#x44c;" d="M22 0 l103 530 l56 0 l-40 -205 l127 0 q86 0 129.5 -41 q43.5 -41 29.5 -109 l-4 -25 q-14 -68 -73 -109 q-59 -41 -145 -41 l-183 0 ZM258 279 l-126 0 l-45 -233 l126 0 q61 0 102.5 27 q41.5 27 50.5 74 l6 31 q9 46 -21.5 73.5 q-30.5 27.5 -92.5 27.5 Z" /><glyph glyph-name="afii10095" unicode="&#x44d;" d="M293 491 q-62 0 -107 -29.5 q-45 -29.5 -54 -75.5 l-5 -27 l-55 0 l4 24 q14 68 76.5 111 q62.5 43 148.5 43 q86 0 132 -43 q46 -43 33 -111 l-45 -236 q-13 -68 -76 -111 q-63 -43 -149 -43 q-86 0 -132 43 q-46 43 -33 111 l4 24 l56 0 l-5 -27 q-10 -46 23 -75.5 q33 -29.5 95 -29.5 q62 0 106.5 29.5 q44.5 29.5 54.5 75.5 l19 99 l-174 0 l9 46 l173 0 l19 97 q9 46 -24 75.5 q-33 29.5 -94 29.5 Z" /><glyph glyph-name="afii10096" unicode="&#x44e;" d="M611 147 q-13 -68 -72 -111 q-59 -43 -138 -43 q-80 0 -122.5 43 q-42.5 43 -29.5 111 l19 103 l-142 0 l-48 -250 l-56 0 l103 530 l56 0 l-46 -234 l142 0 l17 87 q13 68 72 111 q59 43 139 43 q80 0 122.5 -43 q42.5 -43 29.5 -111 l-46 -236 ZM555 144 l47 242 q9 46 -21 75.5 q-30 29.5 -84 29.5 q-55 0 -96 -29 q-41 -29 -51 -76 l-46 -242 q-9 -46 20.5 -75.5 q29.5 -29.5 84.5 -29.5 q54 0 95.5 29.5 q41.5 29.5 50.5 75.5 Z" /><glyph glyph-name="afii10097" unicode="&#x44f;" d="M467 530 l-103 -530 l-56 0 l43 221 l-117 0 l-186 -221 l-58 0 l188 225 q-61 11 -89 47 q-28 36 -18 92 l4 23 q13 66 71.5 104.5 q58.5 38.5 144.5 38.5 l176 0 ZM126 361 q-9 -45 21.5 -69.5 q30.5 -24.5 92.5 -24.5 l120 0 l42 217 l-119 0 q-62 0 -102.5 -24.5 q-40.5 -24.5 -49.5 -69.5 l-5 -29 Z" /><glyph glyph-name="afii10071" unicode="&#x451;" d="M434 165 l-3 -18 q-13 -68 -76 -111 q-63 -43 -149 -43 q-86 0 -132 43 q-46 43 -33 111 l45 236 q13 68 76 111 q63 43 149 43 q86 0 132 -43 q46 -43 33 -111 l-27 -139 l-334 0 l-19 -100 q-10 -46 23.5 -75.5 q33.5 -29.5 95.5 -29.5 q61 0 105.5 29.5 q44.5 29.5 54.5 75.5 l4 21 l55 0 ZM303 491 q-62 0 -107 -29.5 q-45 -29.5 -54 -75.5 l-19 -96 l279 0 l19 96 q9 46 -24 75.5 q-33 29.5 -94 29.5 ZM383 602 l13 70 l49 0 l-13 -70 l-49 0 ZM209 602 l13 70 l49 0 l-13 -70 l-49 0 Z" /></font>
</defs>
</svg>
